<?xml version="1.0" encoding="UTF-8"?>
<svg width="19px" height="13px" viewBox="0 0 19 13" version="1.1" xmlns="http://www.w3.org/2000/svg" xmlns:xlink="http://www.w3.org/1999/xlink">
    <!-- Generator: Sketch 47.1 (45422) - http://www.bohemiancoding.com/sketch -->
    <title>fleche noir copy 2</title>
    <desc>Created with Sketch.</desc>
    <defs></defs>
    <g id="RADIATEURS-GAMT---WF" stroke="none" stroke-width="1" fill="none" fill-rule="evenodd">
        <g id="GAMT---Local-IPAD-modification" transform="translate(-591.000000, -125.000000)" stroke="#666666">
            <g id="fleche-noir" transform="translate(601.000000, 130.666667) scale(1, -1) translate(-601.000000, -130.666667) translate(591.000000, 124.000000)">
                <path d="M2.13649243,0 L17.0802516,0 L17.0802516,-2.22044605e-16 C17.6325364,1.63861192e-15 18.0802516,0.44771525 18.0802516,1 C18.0802516,1.23411578 17.9981099,1.46081062 17.8481388,1.64058512 L10.3762592,10.5973346 L10.3762592,10.5973346 C10.0224738,11.021427 9.39187928,11.078422 8.96778691,10.7246366 C8.92161169,10.6861165 8.87900505,10.6435098 8.84048486,10.5973346 L1.36860527,1.64058512 L1.36860527,1.64058512 C1.01481987,1.21649275 1.07181494,0.585898227 1.49590731,0.232112833 C1.67568181,0.0821417505 1.90237666,4.8709558e-16 2.13649243,4.4408921e-16 Z" id="Path-2-Copy-19" transform="translate(9.608372, 5.758911) scale(1, -1) translate(-9.608372, -5.758911) "></path>
            </g>
        </g>
    </g>
</svg>